<?xml version="1.0" encoding="UTF-8" standalone="no"?>
<!DOCTYPE svg PUBLIC "-//W3C//DTD SVG 1.1//EN" "http://www.w3.org/Graphics/SVG/1.1/DTD/svg11.dtd">
<svg width="100%" height="100%" viewBox="0 0 1404 1986" version="1.1" xmlns="http://www.w3.org/2000/svg" xmlns:xlink="http://www.w3.org/1999/xlink" xml:space="preserve" xmlns:serif="http://www.serif.com/" style="fill-rule:evenodd;clip-rule:evenodd;">
    <g transform="matrix(2.36138,0,0,2.35622,-0.834641,-0.0247444)">
        <g id="fond">
            <rect x="0" y="0" width="595.276" height="841.89" style="fill:white;"/>
        </g>
    </g>
    <g id="grandeLigne31" transform="matrix(1,0,0,1,404.362,571.884)">
        <g id="grandeLigne8" transform="matrix(2.36138,0,0,2.35622,-405.197,-571.908)">
            <g id="grandeLigne4">
                <g id="grandeLigne2">
                    <g id="grandeLigne1">
                        <g id="ligne3">
                            <g id="ligne1">
                                <path d="M0,79.37L595.276,79.37" style="fill:none;fill-rule:nonzero;stroke:rgb(201,201,201);stroke-width:0.56px;"/>
                            </g>
                            <g id="ligne11" serif:id="ligne1" transform="matrix(1,0,0,1,0,5.66929)">
                                <path d="M0,79.37L595.276,79.37" style="fill:none;fill-rule:nonzero;stroke:rgb(201,201,201);stroke-width:0.56px;"/>
                            </g>
                            <g id="ligne12" serif:id="ligne1" transform="matrix(1,0,0,1,0,11.3386)">
                                <path d="M0,79.37L595.276,79.37" style="fill:none;fill-rule:nonzero;stroke:rgb(201,201,201);stroke-width:0.56px;"/>
                            </g>
                        </g>
                        <path d="M0,96.378L595.276,96.378" style="fill:none;fill-rule:nonzero;stroke:rgb(201,201,201);stroke-width:1.13px;"/>
                    </g>
                    <g id="grandeLigne11" serif:id="grandeLigne1" transform="matrix(1,0,0,1,0,22.6772)">
                        <g id="ligne31" serif:id="ligne3">
                            <g id="ligne13" serif:id="ligne1">
                                <path d="M0,79.37L595.276,79.37" style="fill:none;fill-rule:nonzero;stroke:rgb(201,201,201);stroke-width:0.56px;"/>
                            </g>
                            <g id="ligne14" serif:id="ligne1" transform="matrix(1,0,0,1,0,5.66929)">
                                <path d="M0,79.37L595.276,79.37" style="fill:none;fill-rule:nonzero;stroke:rgb(201,201,201);stroke-width:0.56px;"/>
                            </g>
                            <g id="ligne15" serif:id="ligne1" transform="matrix(1,0,0,1,0,11.3386)">
                                <path d="M0,79.37L595.276,79.37" style="fill:none;fill-rule:nonzero;stroke:rgb(201,201,201);stroke-width:0.56px;"/>
                            </g>
                        </g>
                        <path d="M0,96.378L595.276,96.378" style="fill:none;fill-rule:nonzero;stroke:rgb(201,201,201);stroke-width:1.13px;"/>
                    </g>
                </g>
                <g id="grandeLigne21" serif:id="grandeLigne2" transform="matrix(1,0,0,1,0,45.3543)">
                    <g id="grandeLigne12" serif:id="grandeLigne1">
                        <g id="ligne32" serif:id="ligne3">
                            <g id="ligne16" serif:id="ligne1">
                                <path d="M0,79.37L595.276,79.37" style="fill:none;fill-rule:nonzero;stroke:rgb(201,201,201);stroke-width:0.56px;"/>
                            </g>
                            <g id="ligne17" serif:id="ligne1" transform="matrix(1,0,0,1,0,5.66929)">
                                <path d="M0,79.37L595.276,79.37" style="fill:none;fill-rule:nonzero;stroke:rgb(201,201,201);stroke-width:0.56px;"/>
                            </g>
                            <g id="ligne18" serif:id="ligne1" transform="matrix(1,0,0,1,0,11.3386)">
                                <path d="M0,79.37L595.276,79.37" style="fill:none;fill-rule:nonzero;stroke:rgb(201,201,201);stroke-width:0.56px;"/>
                            </g>
                        </g>
                        <path d="M0,96.378L595.276,96.378" style="fill:none;fill-rule:nonzero;stroke:rgb(201,201,201);stroke-width:1.13px;"/>
                    </g>
                    <g id="grandeLigne13" serif:id="grandeLigne1" transform="matrix(1,0,0,1,0,22.6772)">
                        <g id="ligne33" serif:id="ligne3">
                            <g id="ligne19" serif:id="ligne1">
                                <path d="M0,79.37L595.276,79.37" style="fill:none;fill-rule:nonzero;stroke:rgb(201,201,201);stroke-width:0.56px;"/>
                            </g>
                            <g id="ligne110" serif:id="ligne1" transform="matrix(1,0,0,1,0,5.66929)">
                                <path d="M0,79.37L595.276,79.37" style="fill:none;fill-rule:nonzero;stroke:rgb(201,201,201);stroke-width:0.56px;"/>
                            </g>
                            <g id="ligne111" serif:id="ligne1" transform="matrix(1,0,0,1,0,11.3386)">
                                <path d="M0,79.37L595.276,79.37" style="fill:none;fill-rule:nonzero;stroke:rgb(201,201,201);stroke-width:0.56px;"/>
                            </g>
                        </g>
                        <path d="M0,96.378L595.276,96.378" style="fill:none;fill-rule:nonzero;stroke:rgb(201,201,201);stroke-width:1.13px;"/>
                    </g>
                </g>
            </g>
            <g id="grandeLigne41" serif:id="grandeLigne4" transform="matrix(1,0,0,1,0,90.7087)">
                <g id="grandeLigne22" serif:id="grandeLigne2">
                    <g id="grandeLigne14" serif:id="grandeLigne1">
                        <g id="ligne34" serif:id="ligne3">
                            <g id="ligne112" serif:id="ligne1">
                                <path d="M0,79.37L595.276,79.37" style="fill:none;fill-rule:nonzero;stroke:rgb(201,201,201);stroke-width:0.56px;"/>
                            </g>
                            <g id="ligne113" serif:id="ligne1" transform="matrix(1,0,0,1,0,5.66929)">
                                <path d="M0,79.37L595.276,79.37" style="fill:none;fill-rule:nonzero;stroke:rgb(201,201,201);stroke-width:0.56px;"/>
                            </g>
                            <g id="ligne114" serif:id="ligne1" transform="matrix(1,0,0,1,0,11.3386)">
                                <path d="M0,79.37L595.276,79.37" style="fill:none;fill-rule:nonzero;stroke:rgb(201,201,201);stroke-width:0.56px;"/>
                            </g>
                        </g>
                        <path d="M0,96.378L595.276,96.378" style="fill:none;fill-rule:nonzero;stroke:rgb(201,201,201);stroke-width:1.13px;"/>
                    </g>
                    <g id="grandeLigne15" serif:id="grandeLigne1" transform="matrix(1,0,0,1,0,22.6772)">
                        <g id="ligne35" serif:id="ligne3">
                            <g id="ligne115" serif:id="ligne1">
                                <path d="M0,79.37L595.276,79.37" style="fill:none;fill-rule:nonzero;stroke:rgb(201,201,201);stroke-width:0.56px;"/>
                            </g>
                            <g id="ligne116" serif:id="ligne1" transform="matrix(1,0,0,1,0,5.66929)">
                                <path d="M0,79.37L595.276,79.37" style="fill:none;fill-rule:nonzero;stroke:rgb(201,201,201);stroke-width:0.56px;"/>
                            </g>
                            <g id="ligne117" serif:id="ligne1" transform="matrix(1,0,0,1,0,11.3386)">
                                <path d="M0,79.37L595.276,79.37" style="fill:none;fill-rule:nonzero;stroke:rgb(201,201,201);stroke-width:0.56px;"/>
                            </g>
                        </g>
                        <path d="M0,96.378L595.276,96.378" style="fill:none;fill-rule:nonzero;stroke:rgb(201,201,201);stroke-width:1.13px;"/>
                    </g>
                </g>
                <g id="grandeLigne23" serif:id="grandeLigne2" transform="matrix(1,0,0,1,0,45.3543)">
                    <g id="grandeLigne16" serif:id="grandeLigne1">
                        <g id="ligne36" serif:id="ligne3">
                            <g id="ligne118" serif:id="ligne1">
                                <path d="M0,79.37L595.276,79.37" style="fill:none;fill-rule:nonzero;stroke:rgb(201,201,201);stroke-width:0.56px;"/>
                            </g>
                            <g id="ligne119" serif:id="ligne1" transform="matrix(1,0,0,1,0,5.66929)">
                                <path d="M0,79.37L595.276,79.37" style="fill:none;fill-rule:nonzero;stroke:rgb(201,201,201);stroke-width:0.56px;"/>
                            </g>
                            <g id="ligne120" serif:id="ligne1" transform="matrix(1,0,0,1,0,11.3386)">
                                <path d="M0,79.37L595.276,79.37" style="fill:none;fill-rule:nonzero;stroke:rgb(201,201,201);stroke-width:0.56px;"/>
                            </g>
                        </g>
                        <path d="M0,96.378L595.276,96.378" style="fill:none;fill-rule:nonzero;stroke:rgb(201,201,201);stroke-width:1.13px;"/>
                    </g>
                    <g id="grandeLigne17" serif:id="grandeLigne1" transform="matrix(1,0,0,1,0,22.6772)">
                        <g id="ligne37" serif:id="ligne3">
                            <g id="ligne121" serif:id="ligne1">
                                <path d="M0,79.37L595.276,79.37" style="fill:none;fill-rule:nonzero;stroke:rgb(201,201,201);stroke-width:0.56px;"/>
                            </g>
                            <g id="ligne122" serif:id="ligne1" transform="matrix(1,0,0,1,0,5.66929)">
                                <path d="M0,79.37L595.276,79.37" style="fill:none;fill-rule:nonzero;stroke:rgb(201,201,201);stroke-width:0.56px;"/>
                            </g>
                            <g id="ligne123" serif:id="ligne1" transform="matrix(1,0,0,1,0,11.3386)">
                                <path d="M0,79.37L595.276,79.37" style="fill:none;fill-rule:nonzero;stroke:rgb(201,201,201);stroke-width:0.56px;"/>
                            </g>
                        </g>
                        <path d="M0,96.378L595.276,96.378" style="fill:none;fill-rule:nonzero;stroke:rgb(201,201,201);stroke-width:1.13px;"/>
                    </g>
                </g>
            </g>
        </g>
        <g id="grandeLigne81" serif:id="grandeLigne8" transform="matrix(2.36138,0,0,2.35622,-405.197,-144.45)">
            <g id="grandeLigne42" serif:id="grandeLigne4">
                <g id="grandeLigne24" serif:id="grandeLigne2">
                    <g id="grandeLigne18" serif:id="grandeLigne1">
                        <g id="ligne38" serif:id="ligne3">
                            <g id="ligne124" serif:id="ligne1">
                                <path d="M0,79.37L595.276,79.37" style="fill:none;fill-rule:nonzero;stroke:rgb(201,201,201);stroke-width:0.56px;"/>
                            </g>
                            <g id="ligne125" serif:id="ligne1" transform="matrix(1,0,0,1,0,5.66929)">
                                <path d="M0,79.37L595.276,79.37" style="fill:none;fill-rule:nonzero;stroke:rgb(201,201,201);stroke-width:0.56px;"/>
                            </g>
                            <g id="ligne126" serif:id="ligne1" transform="matrix(1,0,0,1,0,11.3386)">
                                <path d="M0,79.37L595.276,79.37" style="fill:none;fill-rule:nonzero;stroke:rgb(201,201,201);stroke-width:0.56px;"/>
                            </g>
                        </g>
                        <path d="M0,96.378L595.276,96.378" style="fill:none;fill-rule:nonzero;stroke:rgb(201,201,201);stroke-width:1.13px;"/>
                    </g>
                    <g id="grandeLigne19" serif:id="grandeLigne1" transform="matrix(1,0,0,1,0,22.6772)">
                        <g id="ligne39" serif:id="ligne3">
                            <g id="ligne127" serif:id="ligne1">
                                <path d="M0,79.37L595.276,79.37" style="fill:none;fill-rule:nonzero;stroke:rgb(201,201,201);stroke-width:0.56px;"/>
                            </g>
                            <g id="ligne128" serif:id="ligne1" transform="matrix(1,0,0,1,0,5.66929)">
                                <path d="M0,79.37L595.276,79.37" style="fill:none;fill-rule:nonzero;stroke:rgb(201,201,201);stroke-width:0.56px;"/>
                            </g>
                            <g id="ligne129" serif:id="ligne1" transform="matrix(1,0,0,1,0,11.3386)">
                                <path d="M0,79.37L595.276,79.37" style="fill:none;fill-rule:nonzero;stroke:rgb(201,201,201);stroke-width:0.56px;"/>
                            </g>
                        </g>
                        <path d="M0,96.378L595.276,96.378" style="fill:none;fill-rule:nonzero;stroke:rgb(201,201,201);stroke-width:1.13px;"/>
                    </g>
                </g>
                <g id="grandeLigne25" serif:id="grandeLigne2" transform="matrix(1,0,0,1,0,45.3543)">
                    <g id="grandeLigne110" serif:id="grandeLigne1">
                        <g id="ligne310" serif:id="ligne3">
                            <g id="ligne130" serif:id="ligne1">
                                <path d="M0,79.37L595.276,79.37" style="fill:none;fill-rule:nonzero;stroke:rgb(201,201,201);stroke-width:0.56px;"/>
                            </g>
                            <g id="ligne131" serif:id="ligne1" transform="matrix(1,0,0,1,0,5.66929)">
                                <path d="M0,79.37L595.276,79.37" style="fill:none;fill-rule:nonzero;stroke:rgb(201,201,201);stroke-width:0.56px;"/>
                            </g>
                            <g id="ligne132" serif:id="ligne1" transform="matrix(1,0,0,1,0,11.3386)">
                                <path d="M0,79.37L595.276,79.37" style="fill:none;fill-rule:nonzero;stroke:rgb(201,201,201);stroke-width:0.56px;"/>
                            </g>
                        </g>
                        <path d="M0,96.378L595.276,96.378" style="fill:none;fill-rule:nonzero;stroke:rgb(201,201,201);stroke-width:1.13px;"/>
                    </g>
                    <g id="grandeLigne111" serif:id="grandeLigne1" transform="matrix(1,0,0,1,0,22.6772)">
                        <g id="ligne311" serif:id="ligne3">
                            <g id="ligne133" serif:id="ligne1">
                                <path d="M0,79.37L595.276,79.37" style="fill:none;fill-rule:nonzero;stroke:rgb(201,201,201);stroke-width:0.56px;"/>
                            </g>
                            <g id="ligne134" serif:id="ligne1" transform="matrix(1,0,0,1,0,5.66929)">
                                <path d="M0,79.37L595.276,79.37" style="fill:none;fill-rule:nonzero;stroke:rgb(201,201,201);stroke-width:0.56px;"/>
                            </g>
                            <g id="ligne135" serif:id="ligne1" transform="matrix(1,0,0,1,0,11.3386)">
                                <path d="M0,79.37L595.276,79.37" style="fill:none;fill-rule:nonzero;stroke:rgb(201,201,201);stroke-width:0.56px;"/>
                            </g>
                        </g>
                        <path d="M0,96.378L595.276,96.378" style="fill:none;fill-rule:nonzero;stroke:rgb(201,201,201);stroke-width:1.13px;"/>
                    </g>
                </g>
            </g>
            <g id="grandeLigne43" serif:id="grandeLigne4" transform="matrix(1,0,0,1,0,90.7087)">
                <g id="grandeLigne26" serif:id="grandeLigne2">
                    <g id="grandeLigne112" serif:id="grandeLigne1">
                        <g id="ligne312" serif:id="ligne3">
                            <g id="ligne136" serif:id="ligne1">
                                <path d="M0,79.37L595.276,79.37" style="fill:none;fill-rule:nonzero;stroke:rgb(201,201,201);stroke-width:0.56px;"/>
                            </g>
                            <g id="ligne137" serif:id="ligne1" transform="matrix(1,0,0,1,0,5.66929)">
                                <path d="M0,79.37L595.276,79.37" style="fill:none;fill-rule:nonzero;stroke:rgb(201,201,201);stroke-width:0.56px;"/>
                            </g>
                            <g id="ligne138" serif:id="ligne1" transform="matrix(1,0,0,1,0,11.3386)">
                                <path d="M0,79.37L595.276,79.37" style="fill:none;fill-rule:nonzero;stroke:rgb(201,201,201);stroke-width:0.56px;"/>
                            </g>
                        </g>
                        <path d="M0,96.378L595.276,96.378" style="fill:none;fill-rule:nonzero;stroke:rgb(201,201,201);stroke-width:1.13px;"/>
                    </g>
                    <g id="grandeLigne113" serif:id="grandeLigne1" transform="matrix(1,0,0,1,0,22.6772)">
                        <g id="ligne313" serif:id="ligne3">
                            <g id="ligne139" serif:id="ligne1">
                                <path d="M0,79.37L595.276,79.37" style="fill:none;fill-rule:nonzero;stroke:rgb(201,201,201);stroke-width:0.56px;"/>
                            </g>
                            <g id="ligne140" serif:id="ligne1" transform="matrix(1,0,0,1,0,5.66929)">
                                <path d="M0,79.37L595.276,79.37" style="fill:none;fill-rule:nonzero;stroke:rgb(201,201,201);stroke-width:0.56px;"/>
                            </g>
                            <g id="ligne141" serif:id="ligne1" transform="matrix(1,0,0,1,0,11.3386)">
                                <path d="M0,79.37L595.276,79.37" style="fill:none;fill-rule:nonzero;stroke:rgb(201,201,201);stroke-width:0.56px;"/>
                            </g>
                        </g>
                        <path d="M0,96.378L595.276,96.378" style="fill:none;fill-rule:nonzero;stroke:rgb(201,201,201);stroke-width:1.13px;"/>
                    </g>
                </g>
                <g id="grandeLigne27" serif:id="grandeLigne2" transform="matrix(1,0,0,1,0,45.3543)">
                    <g id="grandeLigne114" serif:id="grandeLigne1">
                        <g id="ligne314" serif:id="ligne3">
                            <g id="ligne142" serif:id="ligne1">
                                <path d="M0,79.37L595.276,79.37" style="fill:none;fill-rule:nonzero;stroke:rgb(201,201,201);stroke-width:0.56px;"/>
                            </g>
                            <g id="ligne143" serif:id="ligne1" transform="matrix(1,0,0,1,0,5.66929)">
                                <path d="M0,79.37L595.276,79.37" style="fill:none;fill-rule:nonzero;stroke:rgb(201,201,201);stroke-width:0.56px;"/>
                            </g>
                            <g id="ligne144" serif:id="ligne1" transform="matrix(1,0,0,1,0,11.3386)">
                                <path d="M0,79.37L595.276,79.37" style="fill:none;fill-rule:nonzero;stroke:rgb(201,201,201);stroke-width:0.56px;"/>
                            </g>
                        </g>
                        <path d="M0,96.378L595.276,96.378" style="fill:none;fill-rule:nonzero;stroke:rgb(201,201,201);stroke-width:1.13px;"/>
                    </g>
                    <g id="grandeLigne115" serif:id="grandeLigne1" transform="matrix(1,0,0,1,0,22.6772)">
                        <g id="ligne315" serif:id="ligne3">
                            <g id="ligne145" serif:id="ligne1">
                                <path d="M0,79.37L595.276,79.37" style="fill:none;fill-rule:nonzero;stroke:rgb(201,201,201);stroke-width:0.56px;"/>
                            </g>
                            <g id="ligne146" serif:id="ligne1" transform="matrix(1,0,0,1,0,5.66929)">
                                <path d="M0,79.37L595.276,79.37" style="fill:none;fill-rule:nonzero;stroke:rgb(201,201,201);stroke-width:0.56px;"/>
                            </g>
                            <g id="ligne147" serif:id="ligne1" transform="matrix(1,0,0,1,0,11.3386)">
                                <path d="M0,79.37L595.276,79.37" style="fill:none;fill-rule:nonzero;stroke:rgb(201,201,201);stroke-width:0.56px;"/>
                            </g>
                        </g>
                        <path d="M0,96.378L595.276,96.378" style="fill:none;fill-rule:nonzero;stroke:rgb(201,201,201);stroke-width:1.13px;"/>
                    </g>
                </g>
            </g>
        </g>
        <g id="grandeLigne82" serif:id="grandeLigne8" transform="matrix(2.36138,0,0,2.35622,-405.197,283.009)">
            <g id="grandeLigne44" serif:id="grandeLigne4">
                <g id="grandeLigne28" serif:id="grandeLigne2">
                    <g id="grandeLigne116" serif:id="grandeLigne1">
                        <g id="ligne316" serif:id="ligne3">
                            <g id="ligne148" serif:id="ligne1">
                                <path d="M0,79.37L595.276,79.37" style="fill:none;fill-rule:nonzero;stroke:rgb(201,201,201);stroke-width:0.56px;"/>
                            </g>
                            <g id="ligne149" serif:id="ligne1" transform="matrix(1,0,0,1,0,5.66929)">
                                <path d="M0,79.37L595.276,79.37" style="fill:none;fill-rule:nonzero;stroke:rgb(201,201,201);stroke-width:0.56px;"/>
                            </g>
                            <g id="ligne150" serif:id="ligne1" transform="matrix(1,0,0,1,0,11.3386)">
                                <path d="M0,79.37L595.276,79.37" style="fill:none;fill-rule:nonzero;stroke:rgb(201,201,201);stroke-width:0.56px;"/>
                            </g>
                        </g>
                        <path d="M0,96.378L595.276,96.378" style="fill:none;fill-rule:nonzero;stroke:rgb(201,201,201);stroke-width:1.13px;"/>
                    </g>
                    <g id="grandeLigne117" serif:id="grandeLigne1" transform="matrix(1,0,0,1,0,22.6772)">
                        <g id="ligne317" serif:id="ligne3">
                            <g id="ligne151" serif:id="ligne1">
                                <path d="M0,79.37L595.276,79.37" style="fill:none;fill-rule:nonzero;stroke:rgb(201,201,201);stroke-width:0.56px;"/>
                            </g>
                            <g id="ligne152" serif:id="ligne1" transform="matrix(1,0,0,1,0,5.66929)">
                                <path d="M0,79.37L595.276,79.37" style="fill:none;fill-rule:nonzero;stroke:rgb(201,201,201);stroke-width:0.56px;"/>
                            </g>
                            <g id="ligne153" serif:id="ligne1" transform="matrix(1,0,0,1,0,11.3386)">
                                <path d="M0,79.37L595.276,79.37" style="fill:none;fill-rule:nonzero;stroke:rgb(201,201,201);stroke-width:0.56px;"/>
                            </g>
                        </g>
                        <path d="M0,96.378L595.276,96.378" style="fill:none;fill-rule:nonzero;stroke:rgb(201,201,201);stroke-width:1.13px;"/>
                    </g>
                </g>
                <g id="grandeLigne29" serif:id="grandeLigne2" transform="matrix(1,0,0,1,0,45.3543)">
                    <g id="grandeLigne118" serif:id="grandeLigne1">
                        <g id="ligne318" serif:id="ligne3">
                            <g id="ligne154" serif:id="ligne1">
                                <path d="M0,79.37L595.276,79.37" style="fill:none;fill-rule:nonzero;stroke:rgb(201,201,201);stroke-width:0.56px;"/>
                            </g>
                            <g id="ligne155" serif:id="ligne1" transform="matrix(1,0,0,1,0,5.66929)">
                                <path d="M0,79.37L595.276,79.37" style="fill:none;fill-rule:nonzero;stroke:rgb(201,201,201);stroke-width:0.56px;"/>
                            </g>
                            <g id="ligne156" serif:id="ligne1" transform="matrix(1,0,0,1,0,11.3386)">
                                <path d="M0,79.37L595.276,79.37" style="fill:none;fill-rule:nonzero;stroke:rgb(201,201,201);stroke-width:0.56px;"/>
                            </g>
                        </g>
                        <path d="M0,96.378L595.276,96.378" style="fill:none;fill-rule:nonzero;stroke:rgb(201,201,201);stroke-width:1.13px;"/>
                    </g>
                    <g id="grandeLigne119" serif:id="grandeLigne1" transform="matrix(1,0,0,1,0,22.6772)">
                        <g id="ligne319" serif:id="ligne3">
                            <g id="ligne157" serif:id="ligne1">
                                <path d="M0,79.37L595.276,79.37" style="fill:none;fill-rule:nonzero;stroke:rgb(201,201,201);stroke-width:0.56px;"/>
                            </g>
                            <g id="ligne158" serif:id="ligne1" transform="matrix(1,0,0,1,0,5.66929)">
                                <path d="M0,79.37L595.276,79.37" style="fill:none;fill-rule:nonzero;stroke:rgb(201,201,201);stroke-width:0.56px;"/>
                            </g>
                            <g id="ligne159" serif:id="ligne1" transform="matrix(1,0,0,1,0,11.3386)">
                                <path d="M0,79.37L595.276,79.37" style="fill:none;fill-rule:nonzero;stroke:rgb(201,201,201);stroke-width:0.56px;"/>
                            </g>
                        </g>
                        <path d="M0,96.378L595.276,96.378" style="fill:none;fill-rule:nonzero;stroke:rgb(201,201,201);stroke-width:1.13px;"/>
                    </g>
                </g>
            </g>
            <g id="grandeLigne45" serif:id="grandeLigne4" transform="matrix(1,0,0,1,0,90.7087)">
                <g id="grandeLigne210" serif:id="grandeLigne2">
                    <g id="grandeLigne120" serif:id="grandeLigne1">
                        <g id="ligne320" serif:id="ligne3">
                            <g id="ligne160" serif:id="ligne1">
                                <path d="M0,79.37L595.276,79.37" style="fill:none;fill-rule:nonzero;stroke:rgb(201,201,201);stroke-width:0.56px;"/>
                            </g>
                            <g id="ligne161" serif:id="ligne1" transform="matrix(1,0,0,1,0,5.66929)">
                                <path d="M0,79.37L595.276,79.37" style="fill:none;fill-rule:nonzero;stroke:rgb(201,201,201);stroke-width:0.56px;"/>
                            </g>
                            <g id="ligne162" serif:id="ligne1" transform="matrix(1,0,0,1,0,11.3386)">
                                <path d="M0,79.37L595.276,79.37" style="fill:none;fill-rule:nonzero;stroke:rgb(201,201,201);stroke-width:0.56px;"/>
                            </g>
                        </g>
                        <path d="M0,96.378L595.276,96.378" style="fill:none;fill-rule:nonzero;stroke:rgb(201,201,201);stroke-width:1.13px;"/>
                    </g>
                    <g id="grandeLigne121" serif:id="grandeLigne1" transform="matrix(1,0,0,1,0,22.6772)">
                        <g id="ligne321" serif:id="ligne3">
                            <g id="ligne163" serif:id="ligne1">
                                <path d="M0,79.37L595.276,79.37" style="fill:none;fill-rule:nonzero;stroke:rgb(201,201,201);stroke-width:0.56px;"/>
                            </g>
                            <g id="ligne164" serif:id="ligne1" transform="matrix(1,0,0,1,0,5.66929)">
                                <path d="M0,79.37L595.276,79.37" style="fill:none;fill-rule:nonzero;stroke:rgb(201,201,201);stroke-width:0.56px;"/>
                            </g>
                            <g id="ligne165" serif:id="ligne1" transform="matrix(1,0,0,1,0,11.3386)">
                                <path d="M0,79.37L595.276,79.37" style="fill:none;fill-rule:nonzero;stroke:rgb(201,201,201);stroke-width:0.56px;"/>
                            </g>
                        </g>
                        <path d="M0,96.378L595.276,96.378" style="fill:none;fill-rule:nonzero;stroke:rgb(201,201,201);stroke-width:1.13px;"/>
                    </g>
                </g>
                <g id="grandeLigne211" serif:id="grandeLigne2" transform="matrix(1,0,0,1,0,45.3543)">
                    <g id="grandeLigne122" serif:id="grandeLigne1">
                        <g id="ligne322" serif:id="ligne3">
                            <g id="ligne166" serif:id="ligne1">
                                <path d="M0,79.37L595.276,79.37" style="fill:none;fill-rule:nonzero;stroke:rgb(201,201,201);stroke-width:0.56px;"/>
                            </g>
                            <g id="ligne167" serif:id="ligne1" transform="matrix(1,0,0,1,0,5.66929)">
                                <path d="M0,79.37L595.276,79.37" style="fill:none;fill-rule:nonzero;stroke:rgb(201,201,201);stroke-width:0.56px;"/>
                            </g>
                            <g id="ligne168" serif:id="ligne1" transform="matrix(1,0,0,1,0,11.3386)">
                                <path d="M0,79.37L595.276,79.37" style="fill:none;fill-rule:nonzero;stroke:rgb(201,201,201);stroke-width:0.56px;"/>
                            </g>
                        </g>
                        <path d="M0,96.378L595.276,96.378" style="fill:none;fill-rule:nonzero;stroke:rgb(201,201,201);stroke-width:1.13px;"/>
                    </g>
                    <g id="grandeLigne123" serif:id="grandeLigne1" transform="matrix(1,0,0,1,0,22.6772)">
                        <g id="ligne323" serif:id="ligne3">
                            <g id="ligne169" serif:id="ligne1">
                                <path d="M0,79.37L595.276,79.37" style="fill:none;fill-rule:nonzero;stroke:rgb(201,201,201);stroke-width:0.56px;"/>
                            </g>
                            <g id="ligne170" serif:id="ligne1" transform="matrix(1,0,0,1,0,5.66929)">
                                <path d="M0,79.37L595.276,79.37" style="fill:none;fill-rule:nonzero;stroke:rgb(201,201,201);stroke-width:0.56px;"/>
                            </g>
                            <g id="ligne171" serif:id="ligne1" transform="matrix(1,0,0,1,0,11.3386)">
                                <path d="M0,79.37L595.276,79.37" style="fill:none;fill-rule:nonzero;stroke:rgb(201,201,201);stroke-width:0.56px;"/>
                            </g>
                        </g>
                        <path d="M0,96.378L595.276,96.378" style="fill:none;fill-rule:nonzero;stroke:rgb(201,201,201);stroke-width:1.13px;"/>
                    </g>
                </g>
            </g>
        </g>
        <g id="grandeLigne46" serif:id="grandeLigne4" transform="matrix(2.36138,0,0,2.35622,-405.197,710.468)">
            <g id="grandeLigne212" serif:id="grandeLigne2">
                <g id="grandeLigne124" serif:id="grandeLigne1">
                    <g id="ligne324" serif:id="ligne3">
                        <g id="ligne172" serif:id="ligne1">
                            <path d="M0,79.37L595.276,79.37" style="fill:none;fill-rule:nonzero;stroke:rgb(201,201,201);stroke-width:0.56px;"/>
                        </g>
                        <g id="ligne173" serif:id="ligne1" transform="matrix(1,0,0,1,0,5.66929)">
                            <path d="M0,79.37L595.276,79.37" style="fill:none;fill-rule:nonzero;stroke:rgb(201,201,201);stroke-width:0.56px;"/>
                        </g>
                        <g id="ligne174" serif:id="ligne1" transform="matrix(1,0,0,1,0,11.3386)">
                            <path d="M0,79.37L595.276,79.37" style="fill:none;fill-rule:nonzero;stroke:rgb(201,201,201);stroke-width:0.56px;"/>
                        </g>
                    </g>
                    <path d="M0,96.378L595.276,96.378" style="fill:none;fill-rule:nonzero;stroke:rgb(201,201,201);stroke-width:1.13px;"/>
                </g>
                <g id="grandeLigne125" serif:id="grandeLigne1" transform="matrix(1,0,0,1,0,22.6772)">
                    <g id="ligne325" serif:id="ligne3">
                        <g id="ligne175" serif:id="ligne1">
                            <path d="M0,79.37L595.276,79.37" style="fill:none;fill-rule:nonzero;stroke:rgb(201,201,201);stroke-width:0.56px;"/>
                        </g>
                        <g id="ligne176" serif:id="ligne1" transform="matrix(1,0,0,1,0,5.66929)">
                            <path d="M0,79.37L595.276,79.37" style="fill:none;fill-rule:nonzero;stroke:rgb(201,201,201);stroke-width:0.56px;"/>
                        </g>
                        <g id="ligne177" serif:id="ligne1" transform="matrix(1,0,0,1,0,11.3386)">
                            <path d="M0,79.37L595.276,79.37" style="fill:none;fill-rule:nonzero;stroke:rgb(201,201,201);stroke-width:0.56px;"/>
                        </g>
                    </g>
                    <path d="M0,96.378L595.276,96.378" style="fill:none;fill-rule:nonzero;stroke:rgb(201,201,201);stroke-width:1.13px;"/>
                </g>
            </g>
            <g id="grandeLigne213" serif:id="grandeLigne2" transform="matrix(1,0,0,1,0,45.3543)">
                <g id="grandeLigne126" serif:id="grandeLigne1">
                    <g id="ligne326" serif:id="ligne3">
                        <g id="ligne178" serif:id="ligne1">
                            <path d="M0,79.37L595.276,79.37" style="fill:none;fill-rule:nonzero;stroke:rgb(201,201,201);stroke-width:0.56px;"/>
                        </g>
                        <g id="ligne179" serif:id="ligne1" transform="matrix(1,0,0,1,0,5.66929)">
                            <path d="M0,79.37L595.276,79.37" style="fill:none;fill-rule:nonzero;stroke:rgb(201,201,201);stroke-width:0.56px;"/>
                        </g>
                        <g id="ligne180" serif:id="ligne1" transform="matrix(1,0,0,1,0,11.3386)">
                            <path d="M0,79.37L595.276,79.37" style="fill:none;fill-rule:nonzero;stroke:rgb(201,201,201);stroke-width:0.56px;"/>
                        </g>
                    </g>
                    <path d="M0,96.378L595.276,96.378" style="fill:none;fill-rule:nonzero;stroke:rgb(201,201,201);stroke-width:1.13px;"/>
                </g>
                <g id="grandeLigne127" serif:id="grandeLigne1" transform="matrix(1,0,0,1,0,22.6772)">
                    <g id="ligne327" serif:id="ligne3">
                        <g id="ligne181" serif:id="ligne1">
                            <path d="M0,79.37L595.276,79.37" style="fill:none;fill-rule:nonzero;stroke:rgb(201,201,201);stroke-width:0.56px;"/>
                        </g>
                        <g id="ligne182" serif:id="ligne1" transform="matrix(1,0,0,1,0,5.66929)">
                            <path d="M0,79.37L595.276,79.37" style="fill:none;fill-rule:nonzero;stroke:rgb(201,201,201);stroke-width:0.56px;"/>
                        </g>
                        <g id="ligne183" serif:id="ligne1" transform="matrix(1,0,0,1,0,11.3386)">
                            <path d="M0,79.37L595.276,79.37" style="fill:none;fill-rule:nonzero;stroke:rgb(201,201,201);stroke-width:0.56px;"/>
                        </g>
                    </g>
                    <path d="M0,96.378L595.276,96.378" style="fill:none;fill-rule:nonzero;stroke:rgb(201,201,201);stroke-width:1.13px;"/>
                </g>
            </g>
        </g>
        <g id="grandeLigne214" serif:id="grandeLigne2" transform="matrix(2.36138,0,0,2.35622,-405.197,924.197)">
            <g id="grandeLigne128" serif:id="grandeLigne1">
                <g id="ligne328" serif:id="ligne3">
                    <g id="ligne184" serif:id="ligne1">
                        <path d="M0,79.37L595.276,79.37" style="fill:none;fill-rule:nonzero;stroke:rgb(201,201,201);stroke-width:0.56px;"/>
                    </g>
                    <g id="ligne185" serif:id="ligne1" transform="matrix(1,0,0,1,0,5.66929)">
                        <path d="M0,79.37L595.276,79.37" style="fill:none;fill-rule:nonzero;stroke:rgb(201,201,201);stroke-width:0.56px;"/>
                    </g>
                    <g id="ligne186" serif:id="ligne1" transform="matrix(1,0,0,1,0,11.3386)">
                        <path d="M0,79.37L595.276,79.37" style="fill:none;fill-rule:nonzero;stroke:rgb(201,201,201);stroke-width:0.56px;"/>
                    </g>
                </g>
                <path d="M0,96.378L595.276,96.378" style="fill:none;fill-rule:nonzero;stroke:rgb(201,201,201);stroke-width:1.13px;"/>
            </g>
            <g id="grandeLigne129" serif:id="grandeLigne1" transform="matrix(1,0,0,1,0,22.6772)">
                <g id="ligne329" serif:id="ligne3">
                    <g id="ligne187" serif:id="ligne1">
                        <path d="M0,79.37L595.276,79.37" style="fill:none;fill-rule:nonzero;stroke:rgb(201,201,201);stroke-width:0.56px;"/>
                    </g>
                    <g id="ligne188" serif:id="ligne1" transform="matrix(1,0,0,1,0,5.66929)">
                        <path d="M0,79.37L595.276,79.37" style="fill:none;fill-rule:nonzero;stroke:rgb(201,201,201);stroke-width:0.56px;"/>
                    </g>
                    <g id="ligne189" serif:id="ligne1" transform="matrix(1,0,0,1,0,11.3386)">
                        <path d="M0,79.37L595.276,79.37" style="fill:none;fill-rule:nonzero;stroke:rgb(201,201,201);stroke-width:0.56px;"/>
                    </g>
                </g>
                <path d="M0,96.378L595.276,96.378" style="fill:none;fill-rule:nonzero;stroke:rgb(201,201,201);stroke-width:1.13px;"/>
            </g>
        </g>
        <g id="grandeLigne130" serif:id="grandeLigne1" transform="matrix(2.36138,0,0,2.35622,-405.197,1031.06)">
            <g id="ligne330" serif:id="ligne3">
                <g id="ligne190" serif:id="ligne1">
                    <path d="M0,79.37L595.276,79.37" style="fill:none;fill-rule:nonzero;stroke:rgb(201,201,201);stroke-width:0.56px;"/>
                </g>
                <g id="ligne191" serif:id="ligne1" transform="matrix(1,0,0,1,0,5.66929)">
                    <path d="M0,79.37L595.276,79.37" style="fill:none;fill-rule:nonzero;stroke:rgb(201,201,201);stroke-width:0.56px;"/>
                </g>
                <g id="ligne192" serif:id="ligne1" transform="matrix(1,0,0,1,0,11.3386)">
                    <path d="M0,79.37L595.276,79.37" style="fill:none;fill-rule:nonzero;stroke:rgb(201,201,201);stroke-width:0.56px;"/>
                </g>
            </g>
            <path d="M0,96.378L595.276,96.378" style="fill:none;fill-rule:nonzero;stroke:rgb(201,201,201);stroke-width:1.13px;"/>
        </g>
        <g id="ligne193" serif:id="ligne1" transform="matrix(2.36138,0,0,2.35622,-405.197,1084.49)">
            <path d="M0,79.37L595.276,79.37" style="fill:none;fill-rule:nonzero;stroke:rgb(201,201,201);stroke-width:0.56px;"/>
        </g>
        <g id="ligne194" serif:id="ligne1" transform="matrix(2.36138,0,0,2.35622,-405.197,1097.85)">
            <path d="M0,79.37L595.276,79.37" style="fill:none;fill-rule:nonzero;stroke:rgb(201,201,201);stroke-width:0.56px;"/>
        </g>
    </g>
    <g transform="matrix(2.36138,0,0,2.35622,-0.834641,-0.0247444)">
        <g id="marge">
            <path d="M119.055,0L119.055,841.89" style="fill:none;fill-rule:nonzero;stroke:rgb(203,203,203);stroke-width:1.13px;"/>
        </g>
    </g>
    <g id="colonne20" transform="matrix(1,0,0,1,404.362,571.884)">
        <g id="colonne8" transform="matrix(2.36138,0,0,2.35622,-405.197,-571.908)">
            <g id="colonne4">
                <g id="colonne2">
                    <g id="colonne1">
                        <path d="M141.732,0L141.732,841.89" style="fill:none;fill-rule:nonzero;stroke:rgb(201,201,201);stroke-width:0.56px;"/>
                    </g>
                    <g id="colonne11" serif:id="colonne1" transform="matrix(1,0,0,1,22.6772,0)">
                        <path d="M141.732,0L141.732,841.89" style="fill:none;fill-rule:nonzero;stroke:rgb(201,201,201);stroke-width:0.56px;"/>
                    </g>
                </g>
                <g id="colonne21" serif:id="colonne2" transform="matrix(1,0,0,1,45.3543,0)">
                    <g id="colonne12" serif:id="colonne1">
                        <path d="M141.732,0L141.732,841.89" style="fill:none;fill-rule:nonzero;stroke:rgb(201,201,201);stroke-width:0.56px;"/>
                    </g>
                    <g id="colonne13" serif:id="colonne1" transform="matrix(1,0,0,1,22.6772,0)">
                        <path d="M141.732,0L141.732,841.89" style="fill:none;fill-rule:nonzero;stroke:rgb(201,201,201);stroke-width:0.56px;"/>
                    </g>
                </g>
            </g>
            <g id="colonne41" serif:id="colonne4" transform="matrix(1,0,0,1,90.7087,0)">
                <g id="colonne22" serif:id="colonne2">
                    <g id="colonne14" serif:id="colonne1">
                        <path d="M141.732,0L141.732,841.89" style="fill:none;fill-rule:nonzero;stroke:rgb(201,201,201);stroke-width:0.56px;"/>
                    </g>
                    <g id="colonne15" serif:id="colonne1" transform="matrix(1,0,0,1,22.6772,0)">
                        <path d="M141.732,0L141.732,841.89" style="fill:none;fill-rule:nonzero;stroke:rgb(201,201,201);stroke-width:0.56px;"/>
                    </g>
                </g>
                <g id="colonne23" serif:id="colonne2" transform="matrix(1,0,0,1,45.3543,0)">
                    <g id="colonne16" serif:id="colonne1">
                        <path d="M141.732,0L141.732,841.89" style="fill:none;fill-rule:nonzero;stroke:rgb(201,201,201);stroke-width:0.56px;"/>
                    </g>
                    <g id="colonne17" serif:id="colonne1" transform="matrix(1,0,0,1,22.6772,0)">
                        <path d="M141.732,0L141.732,841.89" style="fill:none;fill-rule:nonzero;stroke:rgb(201,201,201);stroke-width:0.56px;"/>
                    </g>
                </g>
            </g>
        </g>
        <g id="colonne81" serif:id="colonne8" transform="matrix(2.36138,0,0,2.35622,23.1976,-571.908)">
            <g id="colonne42" serif:id="colonne4">
                <g id="colonne24" serif:id="colonne2">
                    <g id="colonne18" serif:id="colonne1">
                        <path d="M141.732,0L141.732,841.89" style="fill:none;fill-rule:nonzero;stroke:rgb(201,201,201);stroke-width:0.56px;"/>
                    </g>
                    <g id="colonne19" serif:id="colonne1" transform="matrix(1,0,0,1,22.6772,0)">
                        <path d="M141.732,0L141.732,841.89" style="fill:none;fill-rule:nonzero;stroke:rgb(201,201,201);stroke-width:0.56px;"/>
                    </g>
                </g>
                <g id="colonne25" serif:id="colonne2" transform="matrix(1,0,0,1,45.3543,0)">
                    <g id="colonne110" serif:id="colonne1">
                        <path d="M141.732,0L141.732,841.89" style="fill:none;fill-rule:nonzero;stroke:rgb(201,201,201);stroke-width:0.56px;"/>
                    </g>
                    <g id="colonne111" serif:id="colonne1" transform="matrix(1,0,0,1,22.6772,0)">
                        <path d="M141.732,0L141.732,841.89" style="fill:none;fill-rule:nonzero;stroke:rgb(201,201,201);stroke-width:0.56px;"/>
                    </g>
                </g>
            </g>
            <g id="colonne43" serif:id="colonne4" transform="matrix(1,0,0,1,90.7087,0)">
                <g id="colonne26" serif:id="colonne2">
                    <g id="colonne112" serif:id="colonne1">
                        <path d="M141.732,0L141.732,841.89" style="fill:none;fill-rule:nonzero;stroke:rgb(201,201,201);stroke-width:0.56px;"/>
                    </g>
                    <g id="colonne113" serif:id="colonne1" transform="matrix(1,0,0,1,22.6772,0)">
                        <path d="M141.732,0L141.732,841.89" style="fill:none;fill-rule:nonzero;stroke:rgb(201,201,201);stroke-width:0.56px;"/>
                    </g>
                </g>
                <g id="colonne27" serif:id="colonne2" transform="matrix(1,0,0,1,45.3543,0)">
                    <g id="colonne114" serif:id="colonne1">
                        <path d="M141.732,0L141.732,841.89" style="fill:none;fill-rule:nonzero;stroke:rgb(201,201,201);stroke-width:0.56px;"/>
                    </g>
                    <g id="colonne115" serif:id="colonne1" transform="matrix(1,0,0,1,22.6772,0)">
                        <path d="M141.732,0L141.732,841.89" style="fill:none;fill-rule:nonzero;stroke:rgb(201,201,201);stroke-width:0.56px;"/>
                    </g>
                </g>
            </g>
        </g>
        <g id="colonne44" serif:id="colonne4" transform="matrix(2.36138,0,0,2.35622,451.592,-571.908)">
            <g id="colonne28" serif:id="colonne2">
                <g id="colonne116" serif:id="colonne1">
                    <path d="M141.732,0L141.732,841.89" style="fill:none;fill-rule:nonzero;stroke:rgb(201,201,201);stroke-width:0.56px;"/>
                </g>
                <g id="colonne117" serif:id="colonne1" transform="matrix(1,0,0,1,22.6772,0)">
                    <path d="M141.732,0L141.732,841.89" style="fill:none;fill-rule:nonzero;stroke:rgb(201,201,201);stroke-width:0.56px;"/>
                </g>
            </g>
            <g id="colonne29" serif:id="colonne2" transform="matrix(1,0,0,1,45.3543,0)">
                <g id="colonne118" serif:id="colonne1">
                    <path d="M141.732,0L141.732,841.89" style="fill:none;fill-rule:nonzero;stroke:rgb(201,201,201);stroke-width:0.56px;"/>
                </g>
                <g id="colonne119" serif:id="colonne1" transform="matrix(1,0,0,1,22.6772,0)">
                    <path d="M141.732,0L141.732,841.89" style="fill:none;fill-rule:nonzero;stroke:rgb(201,201,201);stroke-width:0.56px;"/>
                </g>
            </g>
        </g>
    </g>
    <g id="perfos" transform="matrix(1,0,0,1,404.362,571.884)">
        <g id="perfo2" transform="matrix(2.36138,0,0,2.35622,-405.197,-571.908)">
            <g id="perfo1">
                <circle cx="25.512" cy="83.622" r="7.087" style="fill:none;stroke:rgb(128,128,128);stroke-width:0.56px;"/>
                <path d="M32.598,114.976L32.598,137.307C32.598,138.967 31.254,140.315 29.597,140.315L21.426,140.315C19.77,140.315 18.425,138.967 18.425,137.307L18.425,114.976C18.425,113.316 19.77,111.969 21.426,111.969L29.597,111.969C31.254,111.969 32.598,113.316 32.598,114.976Z" style="fill:none;stroke:rgb(128,128,128);stroke-width:0.56px;"/>
            </g>
            <g id="perfo11" serif:id="perfo1" transform="matrix(1,0,0,1,0,198.425)">
                <circle cx="25.512" cy="83.622" r="7.087" style="fill:none;stroke:rgb(128,128,128);stroke-width:0.56px;"/>
                <path d="M32.598,114.976L32.598,137.307C32.598,138.967 31.254,140.315 29.597,140.315L21.426,140.315C19.77,140.315 18.425,138.967 18.425,137.307L18.425,114.976C18.425,113.316 19.77,111.969 21.426,111.969L29.597,111.969C31.254,111.969 32.598,113.316 32.598,114.976Z" style="fill:none;stroke:rgb(128,128,128);stroke-width:0.56px;"/>
            </g>
        </g>
        <g transform="matrix(2.36138,0,0,2.35622,-405.197,-571.908)">
            <circle cx="25.512" cy="420.945" r="7.087" style="fill:none;stroke:rgb(128,128,128);stroke-width:0.56px;"/>
        </g>
        <g id="perfo21" serif:id="perfo2" transform="matrix(2.36138,0,0,-2.35622,-405.197,1411.77)">
            <g id="perfo12" serif:id="perfo1">
                <circle cx="25.512" cy="83.622" r="7.087" style="fill:none;stroke:rgb(128,128,128);stroke-width:0.56px;"/>
                <path d="M32.598,114.976L32.598,137.307C32.598,138.967 31.254,140.315 29.597,140.315L21.426,140.315C19.77,140.315 18.425,138.967 18.425,137.307L18.425,114.976C18.425,113.316 19.77,111.969 21.426,111.969L29.597,111.969C31.254,111.969 32.598,113.316 32.598,114.976Z" style="fill:none;stroke:rgb(128,128,128);stroke-width:0.56px;"/>
            </g>
            <g id="perfo13" serif:id="perfo1" transform="matrix(1,0,0,1,0,198.425)">
                <circle cx="25.512" cy="83.622" r="7.087" style="fill:none;stroke:rgb(128,128,128);stroke-width:0.56px;"/>
                <path d="M32.598,114.976L32.598,137.307C32.598,138.967 31.254,140.315 29.597,140.315L21.426,140.315C19.77,140.315 18.425,138.967 18.425,137.307L18.425,114.976C18.425,113.316 19.77,111.969 21.426,111.969L29.597,111.969C31.254,111.969 32.598,113.316 32.598,114.976Z" style="fill:none;stroke:rgb(128,128,128);stroke-width:0.56px;"/>
            </g>
        </g>
    </g>
</svg>
